<svg width="358" height="358" viewBox="0 0 358 358" fill="none" xmlns="http://www.w3.org/2000/svg">
<g clip-path="url(#clip0_19_350)" filter="url(#filter0_d_19_350)">
<path d="M184.469 92.9728C139.237 92.9728 102.438 129.771 102.438 175.003C102.438 220.234 139.237 257.033 184.469 257.033C229.701 257.033 266.5 220.234 266.5 175.003C266.5 129.771 229.701 92.9728 184.469 92.9728ZM184.469 246.095C145.269 246.095 113.375 214.202 113.375 175.003C113.375 135.803 145.269 103.91 184.469 103.91C223.669 103.91 255.562 135.803 255.562 175.003C255.562 214.202 223.669 246.095 184.469 246.095Z" fill="black"/>
<path d="M184.469 54.6921C118.127 54.6921 64.1562 108.662 64.1562 175.003C64.1562 241.343 118.127 295.313 184.469 295.313C250.81 295.313 304.781 241.343 304.781 175.003C304.781 108.662 250.81 54.6921 184.469 54.6921ZM184.469 284.376C124.159 284.376 75.0938 235.311 75.0938 175.003C75.0938 114.694 124.159 65.6294 184.469 65.6294C244.778 65.6294 293.844 114.694 293.844 175.003C293.844 235.311 244.778 284.376 184.469 284.376Z" fill="black"/>
<path d="M348.531 0.00546265C339.59 0.00546265 331.895 6.67723 330.638 15.5255L310.31 157.82C310.07 159.521 310.638 161.238 311.847 162.452L321.188 171.831V333.589C321.188 342.634 328.548 349.995 337.594 349.995C346.639 349.995 354 342.634 354 333.589V5.46866C354 2.44996 351.55 0.00546265 348.531 0.00546265ZM343.063 333.594C343.063 336.607 340.607 339.063 337.594 339.063C334.58 339.063 332.125 336.607 332.125 333.594V169.572C332.125 168.123 331.551 166.74 330.528 165.711L321.516 156.661L341.455 17.0677C341.652 15.7169 342.22 14.492 343.057 13.5021V333.594H343.063Z" fill="black"/>
<path d="M80.5625 80.7394V5.47418C80.5625 2.73438 78.5281 0.410192 75.8102 0.0547293C73.0812 -0.31714 70.5273 1.40002 69.8109 4.05232L56.8445 52.2258L47.6516 4.4406C47.1594 1.86486 44.9008 0.00551133 42.2812 0.00551133C39.6617 0.00551133 37.4031 1.86486 36.9109 4.4406L27.718 52.2258L14.7461 4.04685C14.0297 1.39455 11.4594 -0.31714 8.75234 0.0492606C6.03437 0.410193 4 2.72891 4 5.47418V80.7449C4 90.3752 9.34844 99.0266 17.9617 103.336C22.8398 105.769 25.875 110.68 25.875 116.138V333.009C25.875 341.299 31.7594 348.507 39.5633 349.776C40.4602 349.923 41.3625 349.995 42.2539 349.995C46.1422 349.995 49.9211 348.633 52.907 346.09C56.582 342.967 58.6875 338.412 58.6875 333.594V116.138C58.6875 110.68 61.7227 105.769 66.6008 103.33C75.2141 99.0212 80.5625 90.3697 80.5625 80.7394ZM61.7117 93.547C53.0984 97.8563 47.75 106.508 47.75 116.138V333.594C47.75 335.202 47.05 336.722 45.8195 337.761C44.5727 338.817 42.9758 339.243 41.3187 338.986C38.7922 338.571 36.8125 335.946 36.8125 333.009V116.138C36.8125 106.508 31.4641 97.8563 22.8508 93.547C17.9727 91.108 14.9375 86.1971 14.9375 80.7394V46.8228L23.3266 77.9887C23.9883 80.4496 26.2086 82.0574 28.8062 82.0355C31.3492 81.9425 33.493 80.105 33.9742 77.6004L42.2812 34.4308L50.5828 77.6004C51.0641 80.105 53.2078 81.937 55.7508 82.0355C58.2883 82.0738 60.5688 80.4496 61.2305 77.9887L69.625 46.8228V80.7449C69.625 86.1971 66.5898 91.108 61.7117 93.547Z" fill="black"/>
<path d="M184.469 202.346H173.531V213.283H184.469V202.346Z" fill="black"/>
<path d="M206.344 202.346H195.406V213.283H206.344V202.346Z" fill="black"/>
<path d="M228.219 202.346H217.281V213.283H228.219V202.346Z" fill="black"/>
</g>
<defs>
<filter id="filter0_d_19_350" x="0" y="0" width="358" height="358" filterUnits="userSpaceOnUse" color-interpolation-filters="sRGB">
<feFlood flood-opacity="0" result="BackgroundImageFix"/>
<feColorMatrix in="SourceAlpha" type="matrix" values="0 0 0 0 0 0 0 0 0 0 0 0 0 0 0 0 0 0 127 0" result="hardAlpha"/>
<feOffset dy="4"/>
<feGaussianBlur stdDeviation="2"/>
<feComposite in2="hardAlpha" operator="out"/>
<feColorMatrix type="matrix" values="0 0 0 0 0 0 0 0 0 0 0 0 0 0 0 0 0 0 0.25 0"/>
<feBlend mode="normal" in2="BackgroundImageFix" result="effect1_dropShadow_19_350"/>
<feBlend mode="normal" in="SourceGraphic" in2="effect1_dropShadow_19_350" result="shape"/>
</filter>
<clipPath id="clip0_19_350">
<rect width="350" height="350" fill="white" transform="translate(4)"/>
</clipPath>
</defs>
</svg>
